<?xml version="1.0" encoding="UTF-8" standalone="no"?>
<svg
   xmlns:dc="http://purl.org/dc/elements/1.1/"
   xmlns:cc="http://creativecommons.org/ns#"
   xmlns:rdf="http://www.w3.org/1999/02/22-rdf-syntax-ns#"
   xmlns:svg="http://www.w3.org/2000/svg"
   xmlns="http://www.w3.org/2000/svg"
   version="1.1"
   id="svg2"
   xml:space="preserve"
   width="666.66669"
   height="666.66669"
   viewBox="0 0 666.66669 666.66669"><metadata
     id="metadata8"><rdf:RDF><cc:Work
         rdf:about=""><dc:format>image/svg+xml</dc:format><dc:type
           rdf:resource="http://purl.org/dc/dcmitype/StillImage" /><dc:title></dc:title></cc:Work></rdf:RDF></metadata><defs
     id="defs6"><clipPath
       clipPathUnits="userSpaceOnUse"
       id="clipPath32"><path
         d="M 0,500 H 500 V 0 H 0 Z"
         id="path30" /></clipPath><clipPath
       clipPathUnits="userSpaceOnUse"
       id="clipPath154"><path
         d="M 0,500 H 500 V 0 H 0 Z"
         id="path152" /></clipPath><clipPath
       clipPathUnits="userSpaceOnUse"
       id="clipPath166"><path
         d="M 75.9898,422.066 H 424.01 V 149.763 H 75.9898 Z"
         id="path164" /></clipPath><clipPath
       clipPathUnits="userSpaceOnUse"
       id="clipPath182"><path
         d="M 0,500 H 500 V 0 H 0 Z"
         id="path180" /></clipPath><clipPath
       clipPathUnits="userSpaceOnUse"
       id="clipPath194"><path
         d="M 0,500 H 500 V 0 H 0 Z"
         id="path192" /></clipPath><clipPath
       clipPathUnits="userSpaceOnUse"
       id="clipPath238"><path
         d="m 296.081,346.37 h 7.76 v -8.992 h -7.76 z"
         id="path236" /></clipPath><clipPath
       clipPathUnits="userSpaceOnUse"
       id="clipPath298"><path
         d="m 297.142,330.543 h 12.936 v -9.52 h -12.936 z"
         id="path296" /></clipPath><clipPath
       clipPathUnits="userSpaceOnUse"
       id="clipPath318"><path
         d="m 288.53,330.281 h 8.586 v -8.638 h -8.586 z"
         id="path316" /></clipPath><clipPath
       clipPathUnits="userSpaceOnUse"
       id="clipPath374"><path
         d="M 0,500 H 500 V 0 H 0 Z"
         id="path372" /></clipPath><clipPath
       clipPathUnits="userSpaceOnUse"
       id="clipPath390"><path
         d="M 247.812,435.213 H 371.615 V 316.047 H 247.812 Z"
         id="path388" /></clipPath><clipPath
       clipPathUnits="userSpaceOnUse"
       id="clipPath410"><path
         d="M 128.292,435.335 H 247.469 V 311.546 H 128.292 Z"
         id="path408" /></clipPath><clipPath
       clipPathUnits="userSpaceOnUse"
       id="clipPath430"><path
         d="M 103,311.191 H 251.973 V 192.026 H 103 Z"
         id="path428" /></clipPath><clipPath
       clipPathUnits="userSpaceOnUse"
       id="clipPath450"><path
         d="M 252.326,315.706 H 371.493 V 191.903 H 252.326 Z"
         id="path448" /></clipPath><clipPath
       clipPathUnits="userSpaceOnUse"
       id="clipPath466"><path
         d="M 0,500 H 500 V 0 H 0 Z"
         id="path464" /></clipPath><clipPath
       clipPathUnits="userSpaceOnUse"
       id="clipPath502"><path
         d="m 119.19,264.049 h 55.572 v -155.2 H 119.19 Z"
         id="path500" /></clipPath><clipPath
       clipPathUnits="userSpaceOnUse"
       id="clipPath518"><path
         d="m 153.38,243.398 h 12.568 V 190.612 H 153.38 Z"
         id="path516" /></clipPath><clipPath
       clipPathUnits="userSpaceOnUse"
       id="clipPath550"><path
         d="m 151.397,264.049 h 34.264 V 102.641 h -34.264 z"
         id="path548" /></clipPath></defs><g
     id="g10"
     transform="matrix(1.3333333,0,0,-1.3333333,0,666.66667)"><path
       d="m 0,117.352 h 500 v 0.249 H 0 Z"
       style="fill:#ececec;fill-opacity:1;fill-rule:nonzero;stroke:none"
       id="path12" /><path
       d="m 131.471,101.926 h 33.123 v 0.25 h -33.123 z"
       style="fill:#ececec;fill-opacity:1;fill-rule:nonzero;stroke:none"
       id="path14" /><path
       d="m 250.152,104.639 h 8.693 v 0.25 h -8.693 z"
       style="fill:#ececec;fill-opacity:1;fill-rule:nonzero;stroke:none"
       id="path16" /><path
       d="m 52.459,108.861 h 19.193 v 0.25 H 52.459 Z"
       style="fill:#ececec;fill-opacity:1;fill-rule:nonzero;stroke:none"
       id="path18" /><path
       d="m 389.696,110.542 h 26.082 v 0.25 h -26.082 z"
       style="fill:#ececec;fill-opacity:1;fill-rule:nonzero;stroke:none"
       id="path20" /><path
       d="m 357.349,110.542 h 23.444 v 0.25 h -23.444 z"
       style="fill:#ececec;fill-opacity:1;fill-rule:nonzero;stroke:none"
       id="path22" /><path
       d="m 356.225,98.542 h 93.676 v 0.25 h -93.676 z"
       style="fill:#ececec;fill-opacity:1;fill-rule:nonzero;stroke:none"
       id="path24" /><g
       id="g26"><g
         id="g28"
         clip-path="url(#clipPath32)"><g
           id="g34"
           transform="translate(43.915,444.7974)"><path
             d="m 0,0 c -3.01,0 -5.458,-2.448 -5.458,-5.458 v -271.431 c 0,-3.01 2.448,-5.458 5.458,-5.458 h 193.099 c 3.008,0 5.457,2.448 5.457,5.458 V -5.458 c 0,3.01 -2.449,5.458 -5.457,5.458 z M 193.099,-282.597 H 0 c -3.147,0 -5.708,2.56 -5.708,5.708 V -5.458 c 0,3.147 2.561,5.708 5.708,5.708 h 193.099 c 3.146,0 5.707,-2.561 5.707,-5.708 v -271.431 c 0,-3.148 -2.561,-5.708 -5.707,-5.708"
             style="fill:#ececec;fill-opacity:1;fill-rule:nonzero;stroke:none"
             id="path36" /></g><g
           id="g38"
           transform="translate(260.2119,444.7974)"><path
             d="m 0,0 c -3.009,0 -5.457,-2.448 -5.457,-5.458 v -271.431 c 0,-3.01 2.448,-5.458 5.457,-5.458 h 193.099 c 3.009,0 5.458,2.448 5.458,5.458 V -5.458 c 0,3.01 -2.449,5.458 -5.458,5.458 z M 193.099,-282.597 H 0 c -3.146,0 -5.707,2.56 -5.707,5.708 V -5.458 c 0,3.147 2.561,5.708 5.707,5.708 h 193.099 c 3.147,0 5.708,-2.561 5.708,-5.708 v -271.431 c 0,-3.148 -2.561,-5.708 -5.708,-5.708"
             style="fill:#ececec;fill-opacity:1;fill-rule:nonzero;stroke:none"
             id="path40" /></g><path
           d="M 94.682,276.107 H 84.156 v -49.983 h 10.526 z"
           style="fill:#f0f0f0;fill-opacity:1;fill-rule:nonzero;stroke:none"
           id="path42" /><path
           d="m 92.987,272.263 h -7.136 v -33.887 h 7.136 z"
           style="fill:#fafafa;fill-opacity:1;fill-rule:nonzero;stroke:none"
           id="path44" /><path
           d="m 94.682,276.107 h 22.479 V 226.124 H 94.682 Z"
           style="fill:#e1e1e1;fill-opacity:1;fill-rule:nonzero;stroke:none"
           id="path46" /><path
           d="M 107.409,276.107 H 96.883 v -49.983 h 10.526 z"
           style="fill:#f0f0f0;fill-opacity:1;fill-rule:nonzero;stroke:none"
           id="path48" /><path
           d="m 105.714,272.263 h -7.136 v -33.887 h 7.136 z"
           style="fill:#fafafa;fill-opacity:1;fill-rule:nonzero;stroke:none"
           id="path50" /><path
           d="m 107.409,276.107 h 22.479 v -49.983 h -22.479 z"
           style="fill:#e1e1e1;fill-opacity:1;fill-rule:nonzero;stroke:none"
           id="path52" /><path
           d="m 118.351,295.565 h 3.806 V 117.601 h -3.806 z"
           style="fill:#ececec;fill-opacity:1;fill-rule:nonzero;stroke:none"
           id="path54" /><path
           d="m 54.481,295.565 h 3.806 V 117.601 h -3.806 z"
           style="fill:#ececec;fill-opacity:1;fill-rule:nonzero;stroke:none"
           id="path56" /><path
           d="m 134.765,295.565 h 3.806 V 117.601 h -3.806 z"
           style="fill:#ececec;fill-opacity:1;fill-rule:nonzero;stroke:none"
           id="path58" /><path
           d="m 70.895,295.565 h 3.806 V 117.601 h -3.806 z"
           style="fill:#ececec;fill-opacity:1;fill-rule:nonzero;stroke:none"
           id="path60" /><path
           d="M 77.079,201.706 H 66.553 v -49.983 h 10.526 z"
           style="fill:#f0f0f0;fill-opacity:1;fill-rule:nonzero;stroke:none"
           id="path62" /><path
           d="m 75.385,197.862 h -7.136 v -33.887 h 7.136 z"
           style="fill:#fafafa;fill-opacity:1;fill-rule:nonzero;stroke:none"
           id="path64" /><path
           d="M 77.079,201.706 H 99.558 V 151.723 H 77.079 Z"
           style="fill:#e1e1e1;fill-opacity:1;fill-rule:nonzero;stroke:none"
           id="path66" /><path
           d="M 89.806,201.706 H 79.28 v -49.983 h 10.526 z"
           style="fill:#f0f0f0;fill-opacity:1;fill-rule:nonzero;stroke:none"
           id="path68" /><path
           d="m 88.111,197.862 h -7.136 v -33.887 h 7.136 z"
           style="fill:#fafafa;fill-opacity:1;fill-rule:nonzero;stroke:none"
           id="path70" /><path
           d="m 89.806,201.706 h 22.479 V 151.723 H 89.806 Z"
           style="fill:#e1e1e1;fill-opacity:1;fill-rule:nonzero;stroke:none"
           id="path72" /><path
           d="m 52.459,295.565 h 86.112 v 4.959 H 52.459 Z"
           style="fill:#f0f0f0;fill-opacity:1;fill-rule:nonzero;stroke:none"
           id="path74" /><path
           d="m 52.459,221.165 h 86.112 v 4.959 H 52.459 Z"
           style="fill:#f0f0f0;fill-opacity:1;fill-rule:nonzero;stroke:none"
           id="path76" /><path
           d="m 52.459,146.764 h 86.112 v 4.959 H 52.459 Z"
           style="fill:#f0f0f0;fill-opacity:1;fill-rule:nonzero;stroke:none"
           id="path78" /><path
           d="m 80.964,412.908 h 58.849 V 338.934 H 80.964 Z"
           style="fill:#f0f0f0;fill-opacity:1;fill-rule:nonzero;stroke:none"
           id="path80" /><path
           d="m 67.973,412.908 h 69.585 V 338.934 H 67.973 Z"
           style="fill:#f5f5f5;fill-opacity:1;fill-rule:nonzero;stroke:none"
           id="path82" /><path
           d="M 131.729,344.764 H 73.803 v 62.314 h 57.926 z"
           style="fill:#ffffff;fill-opacity:1;fill-rule:nonzero;stroke:none"
           id="path84" /><g
           id="g86"
           transform="translate(115.8433,375.9209)"><path
             d="m 0,0 c 0,-7.223 -5.855,-13.078 -13.077,-13.078 -7.223,0 -13.078,5.855 -13.078,13.078 0,7.222 5.855,13.077 13.078,13.077 C -5.855,13.077 0,7.222 0,0"
             style="fill:#f0f0f0;fill-opacity:1;fill-rule:nonzero;stroke:none"
             id="path88" /></g><path
           d="M 216.659,423.941 H 439.43 V 294.32 H 216.659 Z"
           style="fill:#f0f0f0;fill-opacity:1;fill-rule:nonzero;stroke:none"
           id="path90" /><path
           d="M 184.389,423.941 H 433.251 V 294.32 H 184.389 Z"
           style="fill:#f5f5f5;fill-opacity:1;fill-rule:nonzero;stroke:none"
           id="path92" /><path
           d="m 418.77,304.535 h -219.9 v 109.191 h 219.9 z"
           style="fill:#ffffff;fill-opacity:1;fill-rule:nonzero;stroke:none"
           id="path94" /><path
           d="m 418.77,378.903 h -219.9 v 34.823 h 219.9 z"
           style="fill:#fafafa;fill-opacity:1;fill-rule:nonzero;stroke:none"
           id="path96" /><path
           d="m 418.77,304.535 h -219.9 v 46.054 h 219.9 z"
           style="fill:#f0f0f0;fill-opacity:1;fill-rule:nonzero;stroke:none"
           id="path98" /><path
           d="m 438.156,117.604 h -6.568 v 99.062 h 6.568 z"
           style="fill:#e7e7e7;fill-opacity:1;fill-rule:nonzero;stroke:none"
           id="path100" /><path
           d="m 440.228,117.604 h -4.561 v 99.062 h 4.561 z"
           style="fill:#f0f0f0;fill-opacity:1;fill-rule:nonzero;stroke:none"
           id="path102" /><path
           d="m 268.291,205.498 h 173.35 v 11.167 h -173.35 z"
           style="fill:#f0f0f0;fill-opacity:1;fill-rule:nonzero;stroke:none"
           id="path104" /><path
           d="m 265.351,117.604 h -6.568 v 87.895 h 6.568 z"
           style="fill:#e7e7e7;fill-opacity:1;fill-rule:nonzero;stroke:none"
           id="path106" /><path
           d="m 267.423,117.604 h -4.561 v 87.895 h 4.561 z"
           style="fill:#f0f0f0;fill-opacity:1;fill-rule:nonzero;stroke:none"
           id="path108" /><path
           d="m 223.79,117.604 h -6.568 v 87.895 h 6.568 z"
           style="fill:#e7e7e7;fill-opacity:1;fill-rule:nonzero;stroke:none"
           id="path110" /><path
           d="m 225.863,117.604 h -4.561 v 87.895 h 4.561 z"
           style="fill:#e7e7e7;fill-opacity:1;fill-rule:nonzero;stroke:none"
           id="path112" /><path
           d="m 396.595,117.604 h -6.568 v 87.895 h 6.568 z"
           style="fill:#e7e7e7;fill-opacity:1;fill-rule:nonzero;stroke:none"
           id="path114" /><path
           d="m 398.667,117.604 h -4.561 v 87.895 h 4.561 z"
           style="fill:#e7e7e7;fill-opacity:1;fill-rule:nonzero;stroke:none"
           id="path116" /><path
           d="m 268.291,205.498 h -51.069 v 11.167 h 51.069 z"
           style="fill:#e7e7e7;fill-opacity:1;fill-rule:nonzero;stroke:none"
           id="path118" /><g
           id="g120"
           transform="translate(398.8193,239.3291)"><path
             d="M 0,0 C -5.594,-6.25 -25.625,-12.761 -31.55,6.876 -35.859,21.153 -11.768,31.71 2.648,32.319 18.182,32.975 27.359,27.504 27.359,27.504 27.359,27.504 15.004,16.763 0,0"
             style="fill:#e7e7e7;fill-opacity:1;fill-rule:nonzero;stroke:none"
             id="path122" /></g><g
           id="g124"
           transform="translate(367.2621,235.165)"><path
             d="M 0,0 C 7.866,-0.837 21.244,5.179 15.951,21.699 10.659,38.22 -0.172,39.756 -7.334,41.136 -16.463,42.895 -34.711,35.439 -34.711,35.439 -34.711,35.439 -7.867,0.838 0,0"
             style="fill:#e7e7e7;fill-opacity:1;fill-rule:nonzero;stroke:none"
             id="path126" /></g><g
           id="g128"
           transform="translate(387.8452,265.3535)"><path
             d="m 0,0 c -9.909,-4.5 -18.219,-6.028 -13.527,7.993 4.692,14.021 10.403,20.752 19.709,23.604 11.862,3.636 25.94,-4.176 25.94,-4.176 C 32.122,27.421 9.909,4.5 0,0"
             style="fill:#e7e7e7;fill-opacity:1;fill-rule:nonzero;stroke:none"
             id="path130" /></g><g
           id="g132"
           transform="translate(374.3958,266.2969)"><path
             d="M 0,0 C 7.569,-2.239 13.528,-1.767 7.884,11.744 2.241,25.253 -1.52,26.944 -7.985,29.532 -19.947,34.32 -29.965,25.727 -29.965,25.727 -29.965,25.727 -7.569,2.239 0,0"
             style="fill:#e7e7e7;fill-opacity:1;fill-rule:nonzero;stroke:none"
             id="path134" /></g><g
           id="g136"
           transform="translate(390.8615,288.5923)"><path
             d="m 0,0 c -8.223,-7.198 -15.79,-11.765 -15.453,-0.57 0.337,11.195 6.152,21.225 14.996,25.741 6.089,3.109 19.55,1.703 19.55,1.703 C 19.093,26.874 8.223,7.199 0,0"
             style="fill:#e7e7e7;fill-opacity:1;fill-rule:nonzero;stroke:none"
             id="path138" /></g><g
           id="g140"
           transform="translate(369.6693,290.46)"><path
             d="m 0,0 c 5.376,-4.286 10.045,-6.546 8.35,2.546 -1.696,9.092 -4.697,11.546 -9.844,14.755 -6.56,4.09 -13.726,2.105 -13.726,2.105 0,0 9.844,-15.12 15.22,-19.406"
             style="fill:#e7e7e7;fill-opacity:1;fill-rule:nonzero;stroke:none"
             id="path142" /></g><g
           id="g144"
           transform="translate(406.6958,239.5508)"><path
             d="m 0,0 h -54.015 l 7.11,-22.885 H -7.11 Z"
             style="fill:#f0f0f0;fill-opacity:1;fill-rule:nonzero;stroke:none"
             id="path146" /></g></g></g><g
       id="g148"><g
         id="g150"
         clip-path="url(#clipPath154)"><g
           id="g156"
           transform="translate(355.8894,302.3901)"><path
             d="m 0,0 c -23.733,50.238 -66.885,4.342 -96.094,40.478 -17.648,21.832 -16.706,41.887 -41.708,52.967 -17.398,7.71 -36.807,5.156 -55.38,14.47 -31.752,15.924 -71.977,23.457 -84.131,-29.58 -5.071,-22.125 -4.029,-52.517 15.468,-78.001 16.594,-21.689 39.472,-11.695 57.141,-28.477 33.781,-32.084 6.901,-102.037 56.293,-121.418 43.388,-17.025 62.765,43.265 106.944,24.503 33.11,-14.062 87.196,-51.475 106.972,15.75 8.431,28.659 -4.762,50.526 -21.848,64.182 C 20.078,-26.281 15.573,-32.967 0,0"
             style="fill:#007cff;fill-opacity:1;fill-rule:nonzero;stroke:none"
             id="path158" /></g><g
           id="g160"><g
             id="g162" /><g
             id="g174"><g
               clip-path="url(#clipPath166)"
               opacity="0.899994"
               id="g172"><g
                 transform="translate(355.8894,302.3901)"
                 id="g170"><path
                   d="m 0,0 c -23.733,50.238 -66.885,4.342 -96.094,40.478 -17.648,21.832 -16.706,41.887 -41.708,52.967 -17.398,7.71 -36.807,5.156 -55.38,14.47 -31.752,15.924 -71.977,23.457 -84.131,-29.58 -5.071,-22.125 -4.029,-52.517 15.468,-78.001 16.594,-21.689 39.472,-11.695 57.141,-28.477 33.781,-32.084 6.901,-102.037 56.293,-121.418 43.388,-17.025 62.765,43.265 106.944,24.503 33.11,-14.062 87.196,-51.475 106.972,15.75 8.431,28.659 -4.762,50.526 -21.848,64.182 C 20.078,-26.281 15.573,-32.967 0,0"
                   style="fill:#ffffff;fill-opacity:1;fill-rule:nonzero;stroke:none"
                   id="path168" /></g></g></g></g></g></g><g
       id="g176"><g
         id="g178"
         clip-path="url(#clipPath182)"><g
           id="g184"
           transform="translate(443.8894,83.7617)"><path
             d="m 0,0 c 0,-6.254 -86.807,-11.323 -193.889,-11.323 -107.082,0 -193.889,5.069 -193.889,11.323 0,6.254 86.807,11.323 193.889,11.323 C -86.807,11.323 0,6.254 0,0"
             style="fill:#f5f5f5;fill-opacity:1;fill-rule:nonzero;stroke:none"
             id="path186" /></g></g></g><g
       id="g188"><g
         id="g190"
         clip-path="url(#clipPath194)"><g
           id="g196"
           transform="translate(287.5944,314.8628)"><path
             d="m 0,0 -1.237,-1.636 c -0.401,-0.514 -0.813,-1.013 -1.224,-1.511 -0.818,-1 -1.681,-1.958 -2.548,-2.918 -1.754,-1.901 -3.587,-3.76 -5.588,-5.522 -1.002,-0.883 -2.028,-1.756 -3.111,-2.608 -1.097,-0.839 -2.238,-1.66 -3.453,-2.453 -2.479,-1.566 -5.152,-3.103 -9.004,-3.997 l -0.346,-0.08 c -0.333,-0.077 -0.694,-0.12 -1.023,-0.132 -1.958,-0.061 -3.552,0.365 -4.772,0.84 -1.234,0.485 -2.199,1.047 -3.041,1.619 -1.669,1.143 -2.912,2.308 -4.041,3.467 -2.241,2.314 -3.941,4.693 -5.556,7.069 -1.575,2.398 -2.991,4.818 -4.284,7.287 -1.29,2.489 -2.467,4.937 -3.519,7.606 -0.812,2.061 0.2,4.391 2.262,5.204 1.61,0.635 3.384,0.156 4.471,-1.066 l 0.086,-0.099 5.158,-5.826 c 1.729,-1.922 3.459,-3.81 5.217,-5.573 1.727,-1.773 3.538,-3.428 5.221,-4.727 0.833,-0.642 1.667,-1.168 2.269,-1.423 0.294,-0.124 0.519,-0.176 0.539,-0.145 0.031,0.02 -0.229,0.19 -0.855,0.187 l -1.368,-0.213 c 0.81,0.344 2.328,1.321 3.783,2.476 1.478,1.205 3.003,2.622 4.511,4.132 1.493,1.532 3.004,3.125 4.465,4.791 l 2.188,2.508 2.078,2.446 0.252,0.297 c 2.859,3.365 7.904,3.775 11.27,0.917 C 2.043,8.161 2.528,3.356 0,0"
             style="fill:#1a2e35;fill-opacity:1;fill-rule:nonzero;stroke:none"
             id="path198" /></g><g
           id="g200"
           transform="translate(236.4668,324.3843)"><path
             d="m 0,0 c -3.857,-0.601 -7.53,5.658 -7.53,5.658 l -2.888,3.443 c -0.979,1.166 -0.969,2.869 0.023,4.024 l 2.493,2.901 c 1.136,1.323 3.137,1.453 4.435,0.289 l 3.313,-2.969 c 0.591,-0.531 1.061,-1.182 1.378,-1.91 L 2.512,8.47 C 3.617,5.928 3.156,2.978 1.33,0.893 L 1.091,0.62 C 0.808,0.296 0.424,0.066 0,0"
             style="fill:#ffc4be;fill-opacity:1;fill-rule:nonzero;stroke:none"
             id="path202" /></g><g
           id="g204"
           transform="translate(330.6045,181.1631)"><path
             d="m 0,0 c -4.898,36.222 -6.828,57.703 -9.967,75.716 l -30.807,0.464 c 0,0 13.788,-57.764 20.372,-81.295 6.609,-23.623 43.784,-82.193 43.784,-82.193 l 8.187,4.864 C 31.569,-82.444 8.792,-27.429 0,0"
             style="fill:#1a2e35;fill-opacity:1;fill-rule:nonzero;stroke:none"
             id="path206" /></g><g
           id="g208"
           transform="translate(348.5348,84.7578)"><path
             d="m 0,0 c 0,0 6.151,7.535 6.052,10.079 l 6.779,4.027 3.737,-7.457 -3.273,-1.943 -0.99,0.303 -0.71,-1.313 C 8.215,1.687 2.77,-1.369 0.243,-1.837 -0.394,-0.752 0,0 0,0"
             style="fill:#1a2e35;fill-opacity:1;fill-rule:nonzero;stroke:none"
             id="path210" /></g><g
           id="g212"
           transform="translate(319.2628,329.7983)"><path
             d="m 0,0 c -10.893,1.352 -26.464,1.228 -36.9,-0.574 -5.314,-0.917 -9.51,-5.31 -10.252,-10.633 -2.197,-15.759 -0.308,-43.312 1.094,-71.043 23.838,-8.156 48.995,0.111 48.995,0.111 0.867,5.597 -1.084,23.926 -2.395,33.714 1.966,10.105 6.14,21.675 8.896,35.094 C 10.776,-6.815 6.49,-0.806 0,0"
             style="fill:#1a2e35;fill-opacity:1;fill-rule:nonzero;stroke:none"
             id="path214" /></g><g
           id="g216"
           transform="translate(291.1765,330.2812)"><path
             d="m 0,0 c -1.31,-1.319 -2.184,-3.389 -2.646,-6.053 -1.119,-6.402 0.148,-16.263 3.519,-27.574 3.232,9.109 10.185,21.163 14.456,28.168 2.017,3.319 3.432,5.511 3.563,5.703 0.009,0.009 0.009,0.018 0.009,0.018 C 12.268,1.77 6.304,1.562 0,0"
             style="fill:#007cff;fill-opacity:1;fill-rule:nonzero;stroke:none"
             id="path218" /></g><g
           id="g220"
           transform="translate(308.4813,350.6147)"><path
             d="m 0,0 -12.406,-10.175 c 1.605,-4.268 2.114,-8.714 -4.891,-10.424 -1.754,-2.315 1.337,-4.966 4.234,-6.179 4.677,0.583 11.272,2.139 14.124,6.058 C 0.161,-17.645 -1.202,-6.314 0,0"
             style="fill:#ffc4be;fill-opacity:1;fill-rule:nonzero;stroke:none"
             id="path222" /></g><g
           id="g224"
           transform="translate(292.4584,326.4087)"><path
             d="m 0,0 c 0,0 0.631,-2.135 2.572,-3.882 1.892,0 4.658,2.135 4.658,2.135 0,0 -1.07,2.999 -2.573,3.61 C 0.825,0.922 0,0 0,0"
             style="fill:#ffffff;fill-opacity:1;fill-rule:nonzero;stroke:none"
             id="path226" /></g><g
           id="g228"
           transform="translate(296.7753,323.835)"><path
             d="m 0,0 c -1.118,0.777 -2.088,0.533 -2.088,0.533 -2.48,-3.529 -4.061,-9.005 -5.589,-15.32 0.655,-3.835 1.641,-8.009 2.952,-12.394 1.196,3.389 2.917,7.18 4.821,10.961 C -0.446,-11.704 -0.786,-5.799 0,0"
             style="fill:#ffffff;fill-opacity:1;fill-rule:nonzero;stroke:none"
             id="path230" /></g><g
           id="g232"><g
             id="g234" /><g
             id="g246"><g
               clip-path="url(#clipPath238)"
               opacity="0.199997"
               id="g244"><g
                 transform="translate(303.3091,346.3696)"
                 id="g242"><path
                   d="m 0,0 -7.228,-5.924 c 0.389,-1.023 0.707,-2.055 0.869,-3.058 2.802,-0.2 6.697,2.637 6.875,5.192 C 0.607,-2.497 0.276,-0.601 0,0"
                   style="fill:#000000;fill-opacity:1;fill-rule:nonzero;stroke:none"
                   id="path240" /></g></g></g></g><g
           id="g248"
           transform="translate(289.8975,367.4351)"><path
             d="m 0,0 c -4.025,-2.312 -1.927,-4.625 -1.927,-4.625 0,0 -1.71,-4.601 0.56,-7.769 C 9.274,0.347 0,0 0,0"
             style="fill:#1a2e35;fill-opacity:1;fill-rule:nonzero;stroke:none"
             id="path250" /></g><g
           id="g252"
           transform="translate(310.2614,357.5537)"><path
             d="m 0,0 c -1.131,-7.782 -1.397,-12.398 -5.686,-16.051 -6.451,-5.494 -15.818,-1.02 -17.038,6.964 -1.097,7.187 0.937,18.706 8.86,21.115 C -6.057,14.4 1.131,7.782 0,0"
             style="fill:#ffc4be;fill-opacity:1;fill-rule:nonzero;stroke:none"
             id="path254" /></g><g
           id="g256"
           transform="translate(310.0778,352.6855)"><path
             d="m 0,0 c -5.01,-0.514 -4.064,7.717 -2.356,9.332 -4.881,-0.082 -3.939,3.171 -3.34,4.371 -8.136,-1.713 -13.884,-2.064 -17.556,1.969 -2.714,2.981 -5.61,-0.357 -6.466,2.784 1.97,-1.071 5.609,4.282 8.05,2.055 2.441,-2.226 4.865,5.543 8.564,2.227 C -8.136,18.285 5.009,30.403 3.81,17.042 10.662,11.276 1.455,7.622 2.055,1.499 0.171,-1.285 0,0 0,0"
             style="fill:#1a2e35;fill-opacity:1;fill-rule:nonzero;stroke:none"
             id="path258" /></g><g
           id="g260"
           transform="translate(311.2574,368.0977)"><path
             d="m 0,0 c -0.246,0 -0.46,0.181 -0.495,0.431 -0.038,0.274 0.153,0.527 0.427,0.564 0.87,0.121 2.957,1.153 4.019,2.779 C 4.552,4.695 4.718,5.65 4.445,6.615 4.37,6.881 4.524,7.157 4.79,7.232 5.053,7.308 5.331,7.154 5.407,6.888 5.757,5.65 5.543,4.384 4.789,3.228 3.585,1.385 1.274,0.172 0.069,0.005 0.046,0.001 0.023,0 0,0"
             style="fill:#1a2e35;fill-opacity:1;fill-rule:nonzero;stroke:none"
             id="path262" /></g><g
           id="g264"
           transform="translate(312.8975,351.5093)"><path
             d="m 0,0 c -0.765,-1.774 -2.285,-3.024 -3.777,-3.579 -2.245,-0.836 -3.588,1.123 -3.149,3.345 0.396,2 2.041,4.844 4.383,4.726 C -0.236,4.375 0.875,2.028 0,0"
             style="fill:#ffc4be;fill-opacity:1;fill-rule:nonzero;stroke:none"
             id="path266" /></g><g
           id="g268"
           transform="translate(298.5865,357.2661)"><path
             d="m 0,0 c -0.053,-0.637 -0.434,-1.123 -0.85,-1.084 -0.417,0.038 -0.712,0.586 -0.659,1.223 0.053,0.637 0.434,1.123 0.85,1.085 C -0.242,1.185 0.053,0.637 0,0"
             style="fill:#1a2e35;fill-opacity:1;fill-rule:nonzero;stroke:none"
             id="path270" /></g><g
           id="g272"
           transform="translate(290.9666,357.4521)"><path
             d="m 0,0 c -0.053,-0.637 -0.434,-1.123 -0.851,-1.084 -0.416,0.038 -0.711,0.585 -0.658,1.223 0.053,0.637 0.433,1.123 0.85,1.084 C -0.242,1.185 0.053,0.637 0,0"
             style="fill:#1a2e35;fill-opacity:1;fill-rule:nonzero;stroke:none"
             id="path274" /></g><g
           id="g276"
           transform="translate(293.2605,356.5957)"><path
             d="M 0,0 C 0,0 -1.755,-3.543 -3.499,-5.17 -2.458,-6.326 -0.5,-6.021 -0.5,-6.021 Z"
             style="fill:#ff857f;fill-opacity:1;fill-rule:nonzero;stroke:none"
             id="path278" /></g><g
           id="g280"
           transform="translate(301.1931,359.1768)"><path
             d="M 0,0 C 0.062,-0.008 0.127,-0.002 0.189,0.023 0.381,0.099 0.474,0.317 0.396,0.511 -0.38,2.449 -2.076,2.818 -2.147,2.833 -2.351,2.875 -2.548,2.743 -2.588,2.54 -2.628,2.336 -2.496,2.138 -2.294,2.095 -2.238,2.083 -0.919,1.782 -0.3,0.235 -0.247,0.104 -0.13,0.019 0,0"
             style="fill:#1a2e35;fill-opacity:1;fill-rule:nonzero;stroke:none"
             id="path282" /></g><g
           id="g284"
           transform="translate(288.1681,359.8838)"><path
             d="m 0,0 c 0.114,-0.042 0.246,-0.026 0.351,0.052 1.322,0.99 2.6,0.545 2.654,0.526 C 3.2,0.507 3.414,0.608 3.483,0.802 3.553,0.997 3.453,1.212 3.259,1.285 3.188,1.309 1.557,1.897 -0.1,0.657 -0.266,0.533 -0.299,0.297 -0.174,0.13 -0.128,0.068 -0.067,0.024 0,0"
             style="fill:#1a2e35;fill-opacity:1;fill-rule:nonzero;stroke:none"
             id="path286" /></g><g
           id="g288"
           transform="translate(310.0778,330.543)"><path
             d="m 0,0 c 0,0 0,-0.008 -0.009,-0.018 -0.131,-0.191 -1.546,-2.384 -3.564,-5.703 -1.624,-1.537 -3.948,-2.996 -7.24,-3.8 0.402,1.337 -0.795,5.861 -2.123,7.25 C -9.809,-2.428 -5.503,-1.896 0,0"
             style="fill:#007cff;fill-opacity:1;fill-rule:nonzero;stroke:none"
             id="path290" /></g><g
           id="g292"><g
             id="g294" /><g
             id="g306"><g
               clip-path="url(#clipPath298)"
               opacity="0.300003"
               id="g304"><g
                 transform="translate(310.0778,330.543)"
                 id="g302"><path
                   d="m 0,0 c 0,0 0,-0.008 -0.009,-0.018 -0.131,-0.191 -1.546,-2.384 -3.564,-5.703 -1.624,-1.537 -3.948,-2.996 -7.24,-3.8 0.402,1.337 -0.795,5.861 -2.123,7.25 C -9.809,-2.428 -5.503,-1.896 0,0"
                   style="fill:#ffffff;fill-opacity:1;fill-rule:nonzero;stroke:none"
                   id="path300" /></g></g></g></g><g
           id="g308"
           transform="translate(297.1156,328.272)"><path
             d="m 0,0 c -2.673,-1.039 -5.406,-3.93 -6.227,-6.629 -1.407,0.751 -2.106,1.65 -2.358,2.585 0.462,2.664 1.336,4.734 2.646,6.053 C -5.214,1.083 -3.24,0.175 0,0"
             style="fill:#007cff;fill-opacity:1;fill-rule:nonzero;stroke:none"
             id="path310" /></g><g
           id="g312"><g
             id="g314" /><g
             id="g326"><g
               clip-path="url(#clipPath318)"
               opacity="0.300003"
               id="g324"><g
                 transform="translate(297.1156,328.272)"
                 id="g322"><path
                   d="m 0,0 c -2.673,-1.039 -5.406,-3.93 -6.227,-6.629 -1.407,0.751 -2.106,1.65 -2.358,2.585 0.462,2.664 1.336,4.734 2.646,6.053 C -5.214,1.083 -3.24,0.175 0,0"
                   style="fill:#ffffff;fill-opacity:1;fill-rule:nonzero;stroke:none"
                   id="path320" /></g></g></g></g><g
           id="g328"
           transform="translate(326.8475,325.1582)"><path
             d="m 0,0 c 1.999,-2.275 3.714,-4.465 5.456,-6.794 1.708,-2.322 3.381,-4.683 4.941,-7.174 1.581,-2.479 3.085,-5.046 4.456,-7.854 0.684,-1.408 1.367,-2.853 1.953,-4.457 0.585,-1.619 1.143,-3.334 1.486,-5.527 l 0.078,-0.495 c 0.16,-1.019 0.039,-2.043 -0.288,-2.95 -1.23,-3.371 -2.995,-6.012 -4.838,-8.314 -0.918,-1.163 -1.891,-2.226 -2.891,-3.223 -0.997,-1.001 -2.002,-1.958 -3.045,-2.848 -2.085,-1.785 -4.237,-3.391 -6.461,-4.857 -2.253,-1.467 -4.455,-2.773 -6.981,-3.976 -1.999,-0.952 -4.391,-0.103 -5.344,1.895 -0.724,1.521 -0.407,3.269 0.667,4.438 l 0.179,0.193 c 1.55,1.678 3.261,3.481 4.806,5.252 1.565,1.783 3.079,3.573 4.448,5.392 1.393,1.793 2.628,3.644 3.645,5.419 1.029,1.771 1.718,3.544 2.025,4.929 l -0.211,-3.444 c -0.172,0.52 -0.537,1.421 -1.01,2.348 -0.487,0.938 -1.038,1.963 -1.659,2.985 -0.614,1.026 -1.291,2.069 -2.001,3.11 -0.691,1.051 -1.419,2.104 -2.173,3.153 -1.51,2.093 -3.067,4.208 -4.674,6.296 l -4.801,6.195 -0.098,0.126 c -2.707,3.493 -2.07,8.518 1.423,11.225 C -7.557,3.644 -2.77,3.139 0,0"
             style="fill:#1a2e35;fill-opacity:1;fill-rule:nonzero;stroke:none"
             id="path330" /></g><g
           id="g332"
           transform="translate(320.0365,268.2881)"><path
             d="M 0,0 C 0.029,0.427 -0.111,0.851 -0.362,1.197 L -2.55,4.206 C -2.975,4.791 -3.7,5.078 -4.411,4.944 L -7.503,4.361 c -3.006,-0.568 -5.854,-1.777 -8.35,-3.545 l -0.826,-0.585 c -1.422,-1.007 -1.738,-2.988 -0.701,-4.388 l 2.277,-3.074 c 0.907,-1.224 2.566,-1.611 3.92,-0.915 l 3.997,2.053 c 0,0 6.921,2.197 7.186,6.093"
             style="fill:#ffc4be;fill-opacity:1;fill-rule:nonzero;stroke:none"
             id="path334" /></g><g
           id="g336"
           transform="translate(318.2899,274.2671)"><path
             d="m 0,0 c 0,0 -2.743,0.351 -4.365,-0.089 -0.894,-2.289 2.882,-9.177 4.824,-10.374 1.238,0.286 4.064,2.71 4.064,2.71 C 2.863,-5.542 1.138,-1.689 0,0"
             style="fill:#007cff;fill-opacity:1;fill-rule:nonzero;stroke:none"
             id="path338" /></g><g
           id="g340"
           transform="translate(241.783,326.0078)"><path
             d="m 0,0 c 0,0 0.047,2.765 -0.569,4.329 -2.373,0.637 -8.804,-3.875 -9.78,-5.936 0.421,-1.199 3.141,-3.742 3.141,-3.742 C -5.194,-3.455 -1.554,-1.317 0,0"
             style="fill:#007cff;fill-opacity:1;fill-rule:nonzero;stroke:none"
             id="path342" /></g><g
           id="g344"
           transform="translate(353.64,93.3398)"><path
             d="M 0,0 9.244,5.146 7.126,10.874 -3.136,3.916 Z"
             style="fill:#007cff;fill-opacity:1;fill-rule:nonzero;stroke:none"
             id="path346" /></g><g
           id="g348"
           transform="translate(300.3326,177.8975)"><path
             d="m 0,0 c 2.195,36.546 6.415,60.969 4.655,78.981 l -30.771,0.464 c 0,0 3.127,-57.981 5.049,-82.124 1.929,-24.237 12.284,-83.759 12.284,-83.759 H 0.74 c 0,0 2.599,58.166 -0.74,86.438"
             style="fill:#1a2e35;fill-opacity:1;fill-rule:nonzero;stroke:none"
             id="path350" /></g><g
           id="g352"
           transform="translate(276.056,86.4219)"><path
             d="m 0,0 c 0,0 15.471,3.337 16.456,5.574 l 7.885,0.001 0.258,-8.319 h -6.436 l -0.775,0.766 -1.202,-0.766 c -3.933,0 -14.237,0.152 -16.74,1.04 C -0.677,-0.445 0,0 0,0"
             style="fill:#1a2e35;fill-opacity:1;fill-rule:nonzero;stroke:none"
             id="path354" /></g><g
           id="g356"
           transform="translate(291.0157,91.1934)"><path
             d="M 0,0 10.606,-0.297 11.094,5.709 -1.207,4.968 Z"
             style="fill:#007cff;fill-opacity:1;fill-rule:nonzero;stroke:none"
             id="path358" /></g><g
           id="g360"
           transform="translate(295.6997,348.2803)"><path
             d="m 0,0 c -0.384,-0.015 -0.791,0.004 -1.219,0.064 -0.116,0.017 -0.19,0.125 -0.165,0.243 0.025,0.117 0.136,0.199 0.255,0.184 3.13,-0.445 5.069,1.573 5.088,1.593 0.084,0.09 0.22,0.1 0.303,0.022 C 4.346,2.028 4.345,1.892 4.261,1.803 4.187,1.724 2.627,0.098 0,0"
             style="fill:#1a2e35;fill-opacity:1;fill-rule:nonzero;stroke:none"
             id="path362" /></g></g></g><path
       d="m 348.458,188.228 h 8.279 v 1 h -8.279 z"
       style="fill:#007cff;fill-opacity:1;fill-rule:nonzero;stroke:none"
       id="path364" /><path
       d="m 362.875,188.228 h 18.598 v 1 h -18.598 z"
       style="fill:#007cff;fill-opacity:1;fill-rule:nonzero;stroke:none"
       id="path366" /><g
       id="g368"><g
         id="g370"
         clip-path="url(#clipPath374)"><g
           id="g376"
           transform="translate(387.5153,229.75)"><path
             d="m 0,0 h -116.026 l -18.67,-34.548 c -0.828,-1.531 0.281,-3.391 2.022,-3.391 H 0 l 9.485,18.969 z"
             style="fill:#007cff;fill-opacity:1;fill-rule:nonzero;stroke:none"
             id="path378" /></g><g
           id="g380"
           transform="translate(257.4741,397.1606)"><path
             d="m 0,0 c 41.205,-3.702 73.916,-37.325 76.177,-78.934 0.089,-1.652 1.834,-2.675 3.314,-1.935 l 14.091,7.04 c 1.075,0.544 2.327,0.544 3.389,0 l 13.837,-6.913 c 1.569,-0.784 3.401,0.409 3.331,2.161 C 111.634,-16.112 61.876,34.385 -0.291,38.053 L -9.662,19.311 Z"
             style="fill:#007cff;fill-opacity:1;fill-rule:nonzero;stroke:none"
             id="path382" /></g><g
           id="g384"><g
             id="g386" /><g
             id="g398"><g
               clip-path="url(#clipPath390)"
               opacity="0.600006"
               id="g396"><g
                 transform="translate(257.4741,397.1606)"
                 id="g394"><path
                   d="m 0,0 c 41.205,-3.702 73.916,-37.325 76.177,-78.934 0.089,-1.652 1.834,-2.675 3.314,-1.935 l 14.091,7.04 c 1.075,0.544 2.327,0.544 3.389,0 l 13.837,-6.913 c 1.569,-0.784 3.401,0.409 3.331,2.161 C 111.634,-16.112 61.876,34.385 -0.291,38.053 L -9.662,19.311 Z"
                   style="fill:#ffffff;fill-opacity:1;fill-rule:nonzero;stroke:none"
                   id="path392" /></g></g></g></g><g
           id="g400"
           transform="translate(166.3452,321.1948)"><path
             d="m 0,0 c 3.702,41.216 37.335,73.916 78.944,76.176 1.653,0.09 2.676,1.836 1.935,3.316 l -7.05,14.09 c -0.531,1.075 -0.531,2.327 0,3.402 l 6.911,13.823 c 0.785,1.569 -0.408,3.402 -2.161,3.331 C 16.123,111.62 -34.372,61.875 -38.053,-0.278 l 18.742,-9.371 z"
             style="fill:#007cff;fill-opacity:1;fill-rule:nonzero;stroke:none"
             id="path402" /></g><g
           id="g404"><g
             id="g406" /><g
             id="g418"><g
               clip-path="url(#clipPath410)"
               opacity="0.399994"
               id="g416"><g
                 transform="translate(166.3452,321.1948)"
                 id="g414"><path
                   d="m 0,0 c 3.702,41.216 37.335,73.916 78.944,76.176 1.653,0.09 2.676,1.836 1.935,3.316 l -7.05,14.09 c -0.531,1.075 -0.531,2.327 0,3.402 l 6.911,13.823 c 0.785,1.569 -0.408,3.402 -2.161,3.331 C 16.123,111.62 -34.372,61.875 -38.053,-0.278 l 18.742,-9.371 z"
                   style="fill:#ffffff;fill-opacity:1;fill-rule:nonzero;stroke:none"
                   id="path412" /></g></g></g></g><g
           id="g420"
           transform="translate(242.324,230.0781)"><path
             d="m 0,0 h -0.013 c -41.204,3.715 -73.914,37.348 -76.176,78.933 -0.09,1.653 -1.835,2.675 -3.316,1.935 l -14.077,-7.039 c -0.544,-0.266 -1.126,-0.405 -1.708,-0.405 -0.581,0 -1.15,0.139 -1.694,0.405 l -13.837,6.914 c -1.569,0.783 -3.401,-0.41 -3.331,-2.162 1.225,-30.513 13.731,-58.17 33.45,-78.909 h -58.622 l 9.599,-19.21 -9.257,-18.515 H 0.278 l 9.371,18.742 z"
             style="fill:#007cff;fill-opacity:1;fill-rule:nonzero;stroke:none"
             id="path422" /></g><g
           id="g424"><g
             id="g426" /><g
             id="g438"><g
               clip-path="url(#clipPath430)"
               opacity="0.199997"
               id="g436"><g
                 transform="translate(242.324,230.0781)"
                 id="g434"><path
                   d="m 0,0 h -0.013 c -41.204,3.715 -73.914,37.348 -76.176,78.933 -0.09,1.653 -1.835,2.675 -3.316,1.935 l -14.077,-7.039 c -0.544,-0.266 -1.126,-0.405 -1.708,-0.405 -0.581,0 -1.15,0.139 -1.694,0.405 l -13.837,6.914 c -1.569,0.783 -3.401,-0.41 -3.331,-2.162 1.225,-30.513 13.731,-58.17 33.45,-78.909 h -58.622 l 9.599,-19.21 -9.257,-18.515 H 0.278 l 9.371,18.742 z"
                   style="fill:#ffffff;fill-opacity:1;fill-rule:nonzero;stroke:none"
                   id="path432" /></g></g></g></g><g
           id="g440"
           transform="translate(333.4402,306.0571)"><path
             d="m 0,0 v -0.013 c -3.715,-41.204 -37.337,-73.915 -78.934,-76.176 -1.653,-0.09 -2.675,-1.835 -1.935,-3.315 l 7.04,-14.091 c 0.533,-1.067 0.533,-2.322 0,-3.389 l -6.913,-13.838 c -0.784,-1.568 0.409,-3.4 2.161,-3.33 62.469,2.505 112.966,52.264 116.633,114.43 L 19.311,9.649 Z"
             style="fill:#007cff;fill-opacity:1;fill-rule:nonzero;stroke:none"
             id="path442" /></g><g
           id="g444"><g
             id="g446" /><g
             id="g458"><g
               clip-path="url(#clipPath450)"
               opacity="0.800003"
               id="g456"><g
                 transform="translate(333.4402,306.0571)"
                 id="g454"><path
                   d="m 0,0 v -0.013 c -3.715,-41.204 -37.337,-73.915 -78.934,-76.176 -1.653,-0.09 -2.675,-1.835 -1.935,-3.315 l 7.04,-14.091 c 0.533,-1.067 0.533,-2.322 0,-3.389 l -6.913,-13.838 c -0.784,-1.568 0.409,-3.4 2.161,-3.33 62.469,2.505 112.966,52.264 116.633,114.43 L 19.311,9.649 Z"
                   style="fill:#ffffff;fill-opacity:1;fill-rule:nonzero;stroke:none"
                   id="path452" /></g></g></g></g></g></g><g
       id="g460"><g
         id="g462"
         clip-path="url(#clipPath466)"><g
           id="g468"
           transform="translate(208.208,290.812)"><path
             d="m 0,0 c -9.519,-3.327 -19.94,1.687 -23.267,11.206 -3.331,9.53 1.697,19.944 11.216,23.272 C -2.532,37.805 7.879,32.787 11.21,23.257 14.537,13.738 9.519,3.327 0,0 M 40.84,24.836 35.368,40.49 27.052,39.715 c -2.005,2.953 -4.374,5.582 -7.021,7.852 l 1.708,8.184 -14.938,7.201 -5.336,-6.433 c -3.426,0.657 -6.96,0.875 -10.52,0.602 l -4.573,6.984 -15.654,-5.471 0.775,-8.314 c -2.954,-2.005 -5.582,-4.376 -7.852,-7.024 l -8.184,1.709 -7.2,-14.938 6.434,-5.338 c -0.658,-3.425 -0.875,-6.958 -0.603,-10.518 l -6.986,-4.573 5.472,-15.654 8.311,0.774 c 2.005,-2.956 4.376,-5.585 7.026,-7.856 l -1.708,-8.18 14.938,-7.2 5.337,6.434 c 3.426,-0.657 6.959,-0.873 10.519,-0.601 l 4.573,-6.987 15.654,5.471 -0.774,8.313 c 2.956,2.005 5.585,4.376 7.856,7.024 l 8.18,-1.707 7.2,14.938 -6.432,5.335 c 0.657,3.426 0.873,6.96 0.6,10.521 z"
             style="fill:#007cff;fill-opacity:1;fill-rule:nonzero;stroke:none"
             id="path470" /></g><g
           id="g472"
           transform="translate(148.1039,305.7583)"><path
             d="m 0,0 c -0.479,-0.741 -1.057,-1.704 -1.589,-2.577 -0.536,-0.904 -1.062,-1.819 -1.571,-2.748 -1.027,-1.852 -2.012,-3.736 -2.948,-5.644 -1.891,-3.81 -3.544,-7.734 -5.001,-11.724 -0.634,-1.575 0.019,-0.639 -0.737,0.359 -0.334,0.404 -0.557,0.392 -0.437,0.327 0.092,-0.068 0.372,-0.176 0.717,-0.254 1.459,-0.314 3.594,-0.333 5.632,-0.2 4.153,0.253 8.538,0.887 12.803,1.57 l 0.071,0.011 c 1.221,0.196 2.37,-0.636 2.565,-1.857 0.168,-1.048 -0.422,-2.042 -1.364,-2.427 -4.271,-1.744 -8.553,-3.148 -13.202,-4.076 -1.166,-0.218 -2.354,-0.405 -3.601,-0.525 -1.251,-0.121 -2.547,-0.174 -4.04,-0.013 -0.751,0.089 -1.56,0.228 -2.5,0.572 -0.906,0.34 -2.108,0.947 -3.095,2.253 -0.489,0.641 -0.836,1.448 -1.016,2.208 -0.185,0.781 -0.187,1.471 -0.142,2.102 0.052,0.597 0.185,1.177 0.3,1.587 l 0.238,0.836 c 1.24,4.467 2.82,8.832 4.725,13.048 0.942,2.114 1.968,4.19 3.087,6.225 0.56,1.016 1.142,2.024 1.74,3.029 0.616,1.025 1.204,1.952 1.97,3.048 1.423,2.037 4.228,2.536 6.265,1.113 C 0.86,4.854 1.381,2.145 0.078,0.121 Z"
             style="fill:#913c38;fill-opacity:1;fill-rule:nonzero;stroke:none"
             id="path474" /></g><g
           id="g476"
           transform="translate(165.0935,280.3496)"><path
             d="M 0,0 -2.084,-1.734 C -2.868,-2.387 -3.919,-2.62 -4.905,-2.36 l -4.609,1.213 c -1.842,0.485 -3.336,1.832 -4.008,3.615 l -0.416,1.104 c 3.261,3.113 9.078,4.075 9.078,4.075 l 1.628,0.458 c 1.449,0.408 2.885,-0.354 3.298,-1.75 L 1.016,3.142 C 1.343,2.032 0.939,0.782 0,0"
             style="fill:#913c38;fill-opacity:1;fill-rule:nonzero;stroke:none"
             id="path478" /></g><g
           id="g480"
           transform="translate(153.8698,338.9341)"><path
             d="m 0,0 c 1.437,-5.31 3.201,-15.04 -0.25,-18.583 0,0 -2.649,-4.977 13.009,-4.173 10.964,0.563 3.494,4.173 3.494,4.173 -6.027,1.414 -6.202,5.807 -5.478,9.933 z"
             style="fill:#913c38;fill-opacity:1;fill-rule:nonzero;stroke:none"
             id="path482" /></g><g
           id="g484"
           transform="translate(130.793,116.8545)"><path
             d="m 0,0 -10.153,3.736 c -0.89,-7.844 -4.074,-19.807 -4.074,-19.807 l 7.12,-3.053 c 0,0 4.744,14.347 7.107,19.124"
             style="fill:#913c38;fill-opacity:1;fill-rule:nonzero;stroke:none"
             id="path486" /></g><g
           id="g488"
           transform="translate(125.351,85.9912)"><path
             d="m 0,0 c -5.433,3.978 -4.986,3.778 -7.971,6.121 -2.552,2.012 -3.393,2.126 -5.462,3.713 -1.731,1.324 -0.558,3.046 1.257,4.686 0.696,0.629 1.561,1.328 2.558,2.237 0.575,0.524 1.418,0.572 2.057,0.104 l 6.356,-4.652 c 0.462,-0.338 0.758,-0.894 0.757,-1.486 C -0.451,7.912 0.75,4.968 3.271,2.553 5.934,0.001 2.166,-1.585 0,0"
             style="fill:#1a2e35;fill-opacity:1;fill-rule:nonzero;stroke:none"
             id="path490" /></g><g
           id="g492"
           transform="translate(174.762,264.0498)"><path
             d="m 0,0 c 0,0 -10.693,-55.052 -18.981,-80.704 -8.705,-26.942 -21.419,-56.923 -27.191,-74.48 -1.787,-0.23 -6.902,1.903 -9.4,4.031 0,0 3.815,46.029 16.847,69.799 C -40.046,-11.993 -26.845,0 -26.845,0 Z"
             style="fill:#007cff;fill-opacity:1;fill-rule:nonzero;stroke:none"
             id="path494" /></g><g
           id="g496"><g
             id="g498" /><g
             id="g510"><g
               clip-path="url(#clipPath502)"
               opacity="0.300003"
               id="g508"><g
                 transform="translate(174.762,264.0498)"
                 id="g506"><path
                   d="m 0,0 c 0,0 -10.693,-55.052 -18.981,-80.704 -8.705,-26.942 -21.419,-56.923 -27.191,-74.48 -1.787,-0.23 -6.902,1.903 -9.4,4.031 0,0 3.815,46.029 16.847,69.799 C -40.046,-11.993 -26.845,0 -26.845,0 Z"
                   style="fill:#000000;fill-opacity:1;fill-rule:nonzero;stroke:none"
                   id="path504" /></g></g></g></g><g
           id="g512"><g
             id="g514" /><g
             id="g526"><g
               clip-path="url(#clipPath518)"
               opacity="0.199997"
               id="g524"><g
                 transform="translate(154.902,243.3975)"
                 id="g522"><path
                   d="M 0,0 11.046,-21 C 8.525,-32.046 5.731,-43.468 3.067,-52.785 -4.977,-30.434 0,0 0,0"
                   style="fill:#000000;fill-opacity:1;fill-rule:nonzero;stroke:none"
                   id="path520" /></g></g></g></g><g
           id="g528"
           transform="translate(130.7684,112.1338)"><path
             d="m 0,0 c -0.234,-0.875 -0.61,-2.415 -0.721,-3.663 -0.04,-0.45 -0.456,-0.711 -0.923,-0.593 -3.899,0.98 -9.049,4.013 -10.674,5.007 -0.311,0.19 -0.486,0.536 -0.444,0.865 l 0.45,3.52 c 0.061,0.48 0.563,0.729 1.048,0.519 L -0.553,1.021 C -0.138,0.841 0.106,0.396 0,0"
             style="fill:#1a2e35;fill-opacity:1;fill-rule:nonzero;stroke:none"
             id="path530" /></g><g
           id="g532"
           transform="translate(183.6517,112.1357)"><path
             d="m 0,0 -9.75,-0.717 c 1.598,-7.779 3.265,-20.061 3.265,-20.061 h 7.746 c 0,0 -1.38,15.455 -1.261,20.778"
             style="fill:#913c38;fill-opacity:1;fill-rule:nonzero;stroke:none"
             id="path534" /></g><g
           id="g536"
           transform="translate(193.1017,83.6748)"><path
             d="m 0,0 c -6.733,0 -6.247,0.104 -10.03,0.231 -3.239,0.116 -4.015,-0.289 -6.618,-0.231 -2.175,0.047 -2.091,2.129 -1.417,4.523 0.258,0.919 0.623,1.995 0.989,3.317 0.211,0.763 0.903,1.3 1.694,1.3 h 7.877 c 0.573,0 1.119,-0.273 1.433,-0.752 1.489,-2.27 4.074,-3.937 7.5,-4.397 C 5.049,3.506 2.684,0 0,0"
             style="fill:#1a2e35;fill-opacity:1;fill-rule:nonzero;stroke:none"
             id="path538" /></g><g
           id="g540"
           transform="translate(183.0564,264.0498)"><path
             d="m 0,0 c 0,0 1.22,-47.972 2.314,-77.847 1.093,-29.876 -1.249,-82.678 -1.249,-82.678 -0.219,-1.45 -7.833,-0.871 -9.125,0 0,0 -14.549,42.797 -8.99,79.821 -19.474,48.018 -13.857,79.526 -13.857,79.526 z"
             style="fill:#007cff;fill-opacity:1;fill-rule:nonzero;stroke:none"
             id="path542" /></g><g
           id="g544"><g
             id="g546" /><g
             id="g558"><g
               clip-path="url(#clipPath550)"
               opacity="0.300003"
               id="g556"><g
                 transform="translate(183.0564,264.0498)"
                 id="g554"><path
                   d="m 0,0 c 0,0 1.22,-47.972 2.314,-77.847 1.093,-29.876 -1.249,-82.678 -1.249,-82.678 -0.219,-1.45 -7.833,-0.871 -9.125,0 0,0 -14.549,42.797 -8.99,79.821 -19.474,48.018 -13.857,79.526 -13.857,79.526 z"
                   style="fill:#000000;fill-opacity:1;fill-rule:nonzero;stroke:none"
                   id="path552" /></g></g></g></g><g
           id="g560"
           transform="translate(185.161,107.5254)"><path
             d="m 0,0 c 0.028,-0.986 0.088,-2.743 0.181,-4.041 0.031,-0.43 -0.289,-0.809 -0.72,-0.868 -3.228,-0.445 -8.378,-0.041 -10.068,0.112 -0.335,0.03 -0.6,0.273 -0.663,0.601 l -0.683,3.535 c -0.094,0.482 0.282,0.949 0.778,0.969 L -0.783,0.722 C -0.358,0.738 -0.012,0.423 0,0"
             style="fill:#1a2e35;fill-opacity:1;fill-rule:nonzero;stroke:none"
             id="path562" /></g><g
           id="g564"
           transform="translate(149.7993,272.4243)"><path
             d="m 0,0 c 0.008,-2.559 -1.031,-8.375 -1.031,-8.375 h 33.93 l 0.358,8.631 C 33.257,0.256 7.106,1.74 0,0"
             style="fill:#913c38;fill-opacity:1;fill-rule:nonzero;stroke:none"
             id="path566" /></g><g
           id="g568"
           transform="translate(186.3191,307.6553)"><path
             d="m 0,0 c 0.11,-3.362 0.256,-7.616 -0.239,-15.64 -0.281,-6.791 1.013,-8.457 -0.03,-19.591 -3.716,-2.178 -28.192,-2.093 -40.225,-0.539 0.73,9.632 1.629,16.127 -4.897,37.797 -1.513,5.024 1.861,9.849 7.249,10.364 1.44,0.137 2.967,0.252 4.535,0.323 6.094,0.277 11.09,0.461 16.503,-0.001 1.794,-0.152 3.653,-0.365 5.43,-0.597 C -5.26,11.278 -0.198,6.024 0,0"
             style="fill:#1a2e35;fill-opacity:1;fill-rule:nonzero;stroke:none"
             id="path570" /></g><g
           id="g572"
           transform="translate(235.8448,282.4126)"><path
             d="M 0,0 -1.359,2.347 C -1.87,3.229 -2.776,3.81 -3.792,3.906 l -4.744,0.449 c -1.897,0.18 -3.763,-0.57 -5.008,-2.013 L -14.315,1.45 c 1.988,-4.046 7.118,-6.954 7.118,-6.954 l 1.37,-0.991 c 1.22,-0.881 2.831,-0.662 3.699,0.507 l 1.999,2.689 C 0.561,-2.37 0.613,-1.057 0,0"
             style="fill:#913c38;fill-opacity:1;fill-rule:nonzero;stroke:none"
             id="path574" /></g><g
           id="g576"
           transform="translate(189.4128,305.2334)"><path
             d="M 0,0 0.433,-0.685 C 0.626,-0.971 0.81,-1.274 1.03,-1.572 1.444,-2.171 1.915,-2.768 2.4,-3.353 c 0.967,-1.18 2.04,-2.313 3.152,-3.423 1.138,-1.089 2.324,-2.15 3.574,-3.156 1.25,-1.004 2.557,-1.957 3.896,-2.883 l -0.781,0.362 c 1.645,-0.628 3.644,-1.202 5.612,-1.717 1.985,-0.512 4.002,-1.034 6.04,-1.504 l 6.133,-1.455 c 2.046,-0.506 4.116,-0.972 6.154,-1.491 l 0.019,-0.005 c 1.202,-0.306 1.928,-1.529 1.621,-2.73 -0.259,-1.016 -1.173,-1.69 -2.175,-1.691 -2.166,0 -4.294,0.106 -6.442,0.201 -2.141,0.116 -4.28,0.289 -6.425,0.491 -2.141,0.219 -4.292,0.462 -6.456,0.804 -2.176,0.347 -4.321,0.698 -6.699,1.405 -0.204,0.061 -0.395,0.143 -0.573,0.243 l -0.208,0.119 c -0.815,0.466 -1.638,0.919 -2.448,1.401 -0.797,0.505 -1.603,0.996 -2.377,1.547 -1.569,1.065 -3.075,2.246 -4.52,3.517 -1.44,1.279 -2.808,2.661 -4.077,4.172 -0.629,0.762 -1.241,1.542 -1.821,2.382 -0.293,0.411 -0.577,0.848 -0.854,1.298 -0.137,0.235 -0.271,0.451 -0.409,0.708 -0.147,0.268 -0.247,0.445 -0.46,0.884 -1.078,2.228 -0.146,4.91 2.082,5.988 2.074,1.004 4.54,0.266 5.742,-1.638 z"
             style="fill:#913c38;fill-opacity:1;fill-rule:nonzero;stroke:none"
             id="path578" /></g><g
           id="g580"
           transform="translate(176.1624,319.2783)"><path
             d="M 0,0 C 6.597,-1.75 12.257,-7.405 20.02,-18.574 18.939,-23.14 8.999,-28.404 8.999,-28.404 8.999,-28.404 -11.662,-7.833 0,0"
             style="fill:#1a2e35;fill-opacity:1;fill-rule:nonzero;stroke:none"
             id="path582" /></g><g
           id="g584"
           transform="translate(171.1458,348.792)"><path
             d="M 0,0 C 0.247,-0.69 0.811,-1.146 1.26,-1.02 1.708,-0.893 1.871,-0.231 1.623,0.458 1.376,1.148 0.812,1.605 0.364,1.479 -0.085,1.352 -0.247,0.69 0,0"
             style="fill:#1a2e35;fill-opacity:1;fill-rule:nonzero;stroke:none"
             id="path586" /></g><g
           id="g588"
           transform="translate(171.3251,350.1763)"><path
             d="M 0,0 1.476,0.943 C 1.476,0.943 1.095,-0.59 0,0"
             style="fill:#1a2e35;fill-opacity:1;fill-rule:nonzero;stroke:none"
             id="path590" /></g><g
           id="g592"
           transform="translate(171.6675,347.501)"><path
             d="M 0,0 C 0,0 2.229,-2.642 4.023,-3.712 3.423,-4.818 1.744,-4.865 1.744,-4.865 Z"
             style="fill:#740606;fill-opacity:1;fill-rule:nonzero;stroke:none"
             id="path594" /></g><g
           id="g596"
           transform="translate(170.101,354.5156)"><path
             d="M 0,0 C 0.103,0.024 0.194,0.085 0.251,0.179 0.367,0.372 0.293,0.629 0.085,0.753 -2.005,1.999 -3.787,1.236 -3.862,1.202 -4.074,1.108 -4.156,0.863 -4.044,0.653 -3.934,0.444 -3.673,0.35 -3.461,0.442 -3.391,0.473 -2,1.045 -0.339,0.054 -0.231,-0.01 -0.109,-0.026 0,0"
             style="fill:#1a2e35;fill-opacity:1;fill-rule:nonzero;stroke:none"
             id="path598" /></g><g
           id="g600"
           transform="translate(147.4592,344.8765)"><path
             d="m 0,0 c 3.297,-8.077 4.519,-11.556 10.137,-14.604 8.45,-4.585 17.7,0.647 16.894,9.405 C 26.307,2.684 21.036,14.568 11.813,15.57 2.726,16.558 -3.297,8.077 0,0"
             style="fill:#913c38;fill-opacity:1;fill-rule:nonzero;stroke:none"
             id="path602" /></g><g
           id="g604"
           transform="translate(166.2216,345.0684)"><path
             d="m 0,0 c 2.705,-5.942 2.354,-22.775 -12.772,-17.556 -15.125,5.219 -14.07,13.431 -9.987,19.989 -8.209,7.346 2.397,13.18 12.146,15.832 C -0.864,20.918 7.687,18.544 0,0"
             style="fill:#1a2e35;fill-opacity:1;fill-rule:nonzero;stroke:none"
             id="path606" /></g><g
           id="g608"
           transform="translate(151.3956,345.5884)"><path
             d="m 0,0 c 0.708,-3.497 -1.552,-6.906 -5.049,-7.615 -3.497,-0.708 -6.907,1.552 -7.615,5.049 -0.709,3.498 1.552,6.907 5.049,7.615 C -4.118,5.758 -0.708,3.497 0,0"
             style="fill:#007cff;fill-opacity:1;fill-rule:nonzero;stroke:none"
             id="path610" /></g><g
           id="g612"
           transform="translate(146.6541,335.1162)"><path
             d="m 0,0 c 2.96,6 0.553,13.467 -4.09,18.283 -8.807,9.135 -20.95,3.133 -17.6,-5.898 3.997,-10.773 -17.083,-21.837 -4.796,-28.223 12.022,-6.247 31.973,4.775 26.378,15.623 C -0.071,-0.144 -0.035,-0.072 0,0"
             style="fill:#1a2e35;fill-opacity:1;fill-rule:nonzero;stroke:none"
             id="path614" /></g><g
           id="g616"
           transform="translate(162.8619,344.6328)"><path
             d="M 0,0 C 1.053,-1.659 2.598,-2.59 3.953,-2.804 5.992,-3.127 6.62,-0.763 5.725,1.442 4.92,3.427 2.888,5.986 1,5.292 -0.861,4.609 -1.205,1.897 0,0"
             style="fill:#913c38;fill-opacity:1;fill-rule:nonzero;stroke:none"
             id="path618" /></g><g
           id="g620"
           transform="translate(147.8394,319.9639)"><path
             d="m 0,0 c -5.916,-0.914 -8.289,-2.713 -13.123,-14.604 2.194,-4.435 12.468,-8.677 12.468,-8.677 0,0 6.803,15.401 0.655,23.281"
             style="fill:#1a2e35;fill-opacity:1;fill-rule:nonzero;stroke:none"
             id="path622" /></g><g
           id="g624"
           transform="translate(183.1226,261.4531)"><path
             d="m 0,0 c -11.99,-1.362 -24.501,-1.288 -36.491,0.075 -0.531,0.059 -0.851,0.647 -0.633,1.158 0.297,0.7 0.592,1.4 0.884,2.1 0.137,0.326 0.453,0.522 0.784,0.485 C -23.93,2.557 -11.893,2.507 -0.371,3.817 0.052,3.868 0.432,3.536 0.478,3.085 0.552,2.358 0.624,1.635 0.697,0.909 0.743,0.457 0.431,0.051 0,0"
             style="fill:#1a2e35;fill-opacity:1;fill-rule:nonzero;stroke:none"
             id="path626" /></g></g></g></g></svg>
